<?xml version="1.0" encoding="utf-8"?>
<!-- Generator: Adobe Illustrator 25.4.1, SVG Export Plug-In . SVG Version: 6.00 Build 0)  -->
<svg version="1.0" id="Layer_1" xmlns="http://www.w3.org/2000/svg" xmlns:xlink="http://www.w3.org/1999/xlink" x="0px" y="0px"
	 width="500px" height="500px" viewBox="0 0 500 500" enable-background="new 0 0 500 500" xml:space="preserve">
<g>
	<path fill="#FFFFFF" d="M92.136,103.386c0-4.302,0.441-11.889-6.174-11.889c-6.459,0-6.307,6.73-6.307,11.333v28.793
		c0,4.587-0.151,11.756,6.307,11.756c7.169,0,6.174-9.902,6.174-14.471v-4.741h31.662v27.952
		c-9.597,9.594-26.498,12.312-39.556,12.312c-38.257,0-38.387-22.216-38.387-33.111v-30.093c0-19.176,6.997-30.803,37.546-30.803
		c14.166,0,28.942,2.449,40.397,11.184v24.645H92.136V103.386z"/>
	<path fill="#FFFFFF" d="M181.399,155.711c-7.148,6.002-14.168,8.72-23.511,8.72c-15.755,0-25.621-9.884-25.621-25.791
		c0-18.066,10.876-23.347,26.057-28.373l21.794-7.015v-3.141c0-4.451-1.149-8.905-5.866-8.905c-5.451,0-6.615,4.453-6.615,8.905
		v3.715h-31.66V81.608c11.62-8.315,26.227-11.184,40.262-11.184c9.043,0,20.645,1.438,28.239,7.154
		c9.443,7.474,9.615,16.935,9.443,27.378v25.252c0,4.72-0.418,8.871,4.184,12.161v20.224h-36.705V155.711z M180.117,124.167
		c-6.02,2.443-14.05,3.882-14.05,10.171c0,2.866,1.871,6.171,4.877,5.582c2.864,0,6.02-0.977,9.174-3.29V124.167z"/>
	<path fill="#FFFFFF" d="M261.084,72.301h11.184v20.642h-11.184v34.531c0,9.73-0.136,13.325,11.184,14.604v20.499l-16.919,1.279
		c-7.458,0.592-16.63-0.726-22.365-6.307c-6.159-6.141-5.738-14.607-5.738-22.488V92.944h-4.148V72.301h4.148V54.656l33.839-9.6
		V72.301z"/>
	<path fill="#FFFFFF" d="M324.875,103.386c0-4.302,0.405-11.889-6.174-11.889c-6.441,0-6.307,6.73-6.307,11.333v28.793
		c0,4.587-0.133,11.756,6.307,11.756c7.187,0,6.174-9.902,6.174-14.471v-4.741h31.662v27.952
		c-9.597,9.594-26.516,12.312-39.554,12.312c-38.256,0-38.423-22.216-38.423-33.111v-30.093c0-19.176,7.048-30.803,37.562-30.803
		c14.184,0,28.947,2.449,40.415,11.184v24.645h-31.662V103.386z"/>
	<path fill="#FFFFFF" d="M403.549,76.314c7.723-4.587,15.753-6.171,22.921-5.889c7.03,0.308,13.189,2.585,16.63,6.041
		c6.156,5.872,6.866,12.448,6.866,20.194v33.816c0,4.454-0.421,9.446,4.017,11.894v20.209h-35.967
		c-1.987-9.179-1.854-18.778-1.854-28.085v-26.368c0-0.574,0.423-4.738-1.01-8.012c-2.295-3.454-6.007-6.036-11.604-3.454v33.816
		c0,4.454-0.441,9.446,4.146,11.894v20.209h-42.133v-20.209c4.454-2.579,4.164-6.733,4.164-11.32V71.863
		c0.136-4.59,0.42-9.464-4.3-11.894V39.778h38.123V76.314z"/>
	<path fill="#FFFFFF" d="M253.238,398.554c0-49.456,13.648-66.09,62.393-90.089c38.393-18.825,58.701-23.247,58.701-46.876
		c0-14.407-7.387-22.519-16.971-22.519c-11.804,0-18.114,9.225-18.114,25.839v18.455h-80.492v-74.216
		c30.665-19.924,63.524-28.408,102.283-28.408c67.944,0,98.947,28.055,98.947,86.382c0,25.857-5.533,43.569-21.776,59.44
		c-11.456,11.081-36.551,22.537-71.993,40.62c-19.955,10.335-30.275,16.242-30.275,31.76v2.564h14.032
		c19.176,0,23.614-5.905,24.004-26.937h80.474v85.653H253.238V398.554z"/>
	<path fill="#FFFFFF" d="M40.014,398.554c0-49.456,13.663-66.09,62.396-90.089c38.408-18.825,58.717-23.247,58.717-46.876
		c0-14.407-7.389-22.519-17.004-22.519c-11.807,0-18.083,9.225-18.083,25.839v18.455H45.565v-74.216
		c30.616-19.924,63.506-28.408,102.268-28.408c67.909,0,98.945,28.055,98.945,86.382c0,25.857-5.548,43.569-21.794,59.44
		c-11.433,11.081-36.531,22.537-71.99,40.62c-19.937,10.335-30.26,16.242-30.26,31.76v2.564h14.017
		c19.214,0,23.632-5.905,23.988-26.937h80.49v85.653H40.014V398.554z"/>
</g>
</svg>
