<?xml version="1.0" encoding="utf-8"?>
<!-- Generator: Adobe Illustrator 16.0.0, SVG Export Plug-In . SVG Version: 6.00 Build 0)  -->
<!DOCTYPE svg PUBLIC "-//W3C//DTD SVG 1.1//EN" "http://www.w3.org/Graphics/SVG/1.1/DTD/svg11.dtd">
<svg version="1.1" id="Layer_1" xmlns="http://www.w3.org/2000/svg" xmlns:xlink="http://www.w3.org/1999/xlink" x="0px" y="0px"
	 width="40px" height="40px" viewBox="0 0 40 40" enable-background="new 0 0 40 40" xml:space="preserve">
<g>
	<polygon fill-rule="evenodd" clip-rule="evenodd" fill="#FFFFFF" points="32.65,14.45 16.4,30.7 6.2,20.5 10.3,16.45 16.4,22.55 
		28.6,10.35 	"/>
	<path fill-rule="evenodd" clip-rule="evenodd" fill="#FF9900" d="M32.65,14.45l-4.051-4.1l-12.2,12.2l-6.1-6.1L6.2,20.5l10.2,10.2
		L32.65,14.45z M39,20c0,5.233-1.866,9.717-5.6,13.45C29.7,37.15,25.233,39,20,39s-9.7-1.85-13.4-5.55C2.867,29.717,1,25.233,1,20
		c0.033-5.267,1.9-9.75,5.6-13.45C10.3,2.85,14.767,1,20,1s9.7,1.85,13.4,5.55C37.134,10.25,39,14.733,39,20z"/>
</g>
</svg>
