<?xml version="1.0" encoding="utf-8"?>
<!-- Generator: Adobe Illustrator 26.0.1, SVG Export Plug-In . SVG Version: 6.00 Build 0)  -->
<svg version="1.1" id="Layer_1" xmlns="http://www.w3.org/2000/svg" xmlns:xlink="http://www.w3.org/1999/xlink" x="0px" y="0px"
	 width="82px" height="82px" viewBox="0 0 82 82" style="enable-background:new 0 0 82 82;" xml:space="preserve">
<style type="text/css">
	.st0{fill:none;stroke:#FF9900;stroke-width:2;stroke-linecap:round;stroke-linejoin:round;stroke-miterlimit:3;}
	.st1{fill:none;stroke:#FF9900;stroke-linecap:round;stroke-linejoin:round;stroke-miterlimit:3;}
	.st2{fill:none;stroke:#FF9900;stroke-width:1.5;stroke-linecap:round;stroke-linejoin:round;stroke-miterlimit:3;}
</style>
<path class="st0" d="M55.2,43.7c0.4-1.2,1.1-2.2,2.1-3.2c1.8-1.7,3.9-2.6,6.4-2.6c2.5,0,4.6,0.9,6.3,2.6c1.8,1.8,2.7,3.9,2.7,6.4
	s-0.9,4.6-2.7,6.3c-1.7,1.8-3.8,2.7-6.3,2.7c-2.5,0-4.6-0.9-6.4-2.7c-1.8-1.7-2.6-3.8-2.6-6.3C54.7,45.8,54.9,44.7,55.2,43.7"/>
<path class="st1" d="M50,41.5l5.3,2.2"/>
<path class="st0" d="M47,28.3c0.1,0.1,0.1,0.1,0.2,0.2c2.4,2.4,3.5,5.2,3.5,8.5c0,1.6-0.3,3.2-0.8,4.5"/>
<path class="st1" d="M52,23.2l-4.9,5"/>
<path class="st0" d="M51.9,23.2C50.6,22,50,20.4,50,18.6s0.6-3.3,1.9-4.6s2.8-1.9,4.6-1.9s3.3,0.6,4.6,1.9s1.9,2.8,1.9,4.6
	s-0.6,3.4-1.9,4.6c-1.3,1.3-2.8,1.9-4.6,1.9S53.2,24.5,51.9,23.2"/>
<path class="st2" d="M52,23.2L52,23.2"/>
<path class="st0" d="M27.4,21.1c-0.8,0.5-1.6,0.8-2.5,0.8c-1.2,0-2.3-0.5-3.2-1.4c-0.9-0.9-1.3-1.9-1.3-3.1c0-1.3,0.4-2.3,1.3-3.2
	s2-1.3,3.2-1.3s2.3,0.4,3.2,1.3c0.9,0.9,1.3,1.9,1.3,3.2c0,1.2-0.4,2.3-1.3,3.1C27.8,20.8,27.6,20.9,27.4,21.1"/>
<path class="st1" d="M31.8,27.3l-4.4-6.1"/>
<path class="st0" d="M27.5,41.1c-0.5-1.3-0.7-2.6-0.7-4.1c0-3.3,1.2-6.1,3.5-8.5c0.5-0.4,1-0.8,1.5-1.2"/>
<path class="st1" d="M22.9,42.8l4.6-1.8"/>
<path class="st0" d="M22.9,42.9c0.3,0.8,0.4,1.6,0.4,2.6c0,2-0.7,3.6-2,5c-1.4,1.4-3,2-4.9,2s-3.6-0.7-4.9-2c-1.4-1.3-2.1-3-2.1-5
	c0-1.9,0.7-3.6,2.1-5s3-2,4.9-2s3.6,0.7,4.9,2C22,41.2,22.5,42,22.9,42.9"/>
<path class="st0" d="M31.8,27.3c2-1.5,4.4-2.3,7-2.3c3.2,0,6,1.1,8.2,3.3"/>
<path class="st0" d="M38.5,49c-3.2-0.1-6-1.2-8.2-3.5c-1.3-1.3-2.2-2.8-2.8-4.4"/>
<path class="st1" d="M38.3,58.1l0.2-9.1"/>
<path class="st0" d="M38.3,58.1c1.6,0,3,0.6,4.1,1.7c1.2,1.2,1.8,2.6,1.8,4.2c0,1.6-0.6,3-1.8,4.2c-1.1,1.2-2.5,1.8-4.2,1.8
	c-1.6,0-3-0.6-4.2-1.8c-1-1.2-1.6-2.6-1.6-4.2s0.6-3,1.7-4.2C35.3,58.7,36.7,58.1,38.3,58.1L38.3,58.1"/>
<path class="st0" d="M50,41.5c-0.6,1.4-1.5,2.7-2.7,3.9c-2.3,2.4-5.2,3.5-8.5,3.5c-0.1,0-0.2,0-0.2,0"/>
</svg>
