<?xml version="1.0" encoding="utf-8"?>
<!-- Generator: Adobe Illustrator 25.4.1, SVG Export Plug-In . SVG Version: 6.00 Build 0)  -->
<svg version="1.0" id="Layer_1" xmlns="http://www.w3.org/2000/svg" xmlns:xlink="http://www.w3.org/1999/xlink" x="0px" y="0px"
	 width="82px" height="82px" viewBox="0 0 82 82" enable-background="new 0 0 82 82" xml:space="preserve">
<path fill="none" stroke="#FF9900" stroke-width="2" stroke-linecap="round" stroke-linejoin="round" stroke-miterlimit="3" d="
	M39.93,16.328c5.68,0,10.49,1.986,14.431,5.958c2.792,2.7,4.684,5.803,5.679,9.31c0.279-0.031,0.636-0.047,1.072-0.047
	c4.747,0,8.781,1.613,12.102,4.841c3.352,3.383,5.025,7.448,5.025,12.195c0,4.717-1.676,8.737-5.025,12.056
	c-3.198,3.259-7.045,4.934-11.544,5.026H17.306c-3.754-0.094-6.934-1.427-9.543-4.003c-2.668-2.635-4.003-5.816-4.003-9.54
	c0-3.848,1.336-7.106,4.003-9.776c2.731-2.637,6.005-3.957,9.823-3.957c0.589,0,1.194,0.047,1.814,0.14
	c-0.03-0.559-0.047-1.133-0.047-1.722c0-5.709,2.002-10.551,6.005-14.524C29.331,18.314,34.189,16.328,39.93,16.328z"/>
</svg>
